<svg xmlns="http://www.w3.org/2000/svg" width="64" height="64" viewBox="0 0 64 64">
  <!-- Background -->
  <rect width="80" height="80"  fill="#0B1020"/>

  <!-- Monogram -->
  <g fill="#22D3EE">
    <!-- Y -->
    <path d="M16 18c0-1.1.9-2 2-2h3c.7 0 1.3.3 1.7.8l7.3 9 7.3-9c.4-.5 1-.8 1.7-.8h3c1.1 0 2 .9 2 2 0 .5-.2 1-.5 1.4L35 34.3V46c0 1.1-.9 2-2 2h-2c-1.1 0-2-.9-2-2V34.3L16.5 19.4c-.3-.4-.5-.9-.5-1.4z"/>
    <!-- D -->
    <path transform="translate(0,0)" d="M36 22c0-1.1.9-2 2-2h7.5C52.4 20 56 23.6 56 28.5v7C56 40.4 52.4 44 45.5 44H38c-1.1 0-2-.9-2-2V22zm6 4v14h3.2c3 0 4.8-1.7 4.8-4.5v-4.9c0-2.8-1.8-4.6-4.8-4.6H42z"/>
  </g>

  <!-- Terminal prompt >_ (subtle, inside area between letters) -->
  <svg xmlns="http://www.w3.org/2000/svg" width="24" height="24" viewBox="0 0 24 24" fill="none" stroke="#22D3EE" stroke-width="2" stroke-linecap="round" stroke-linejoin="round" class="lucide lucide-terminal-icon lucide-terminal"><path d="M12 19h8"/><path d="m4 17 6-6-6-6"/></svg>

  <!-- DevOps infinity badge bottom-right -->
  <g transform="translate(44,44)">
    <rect x="0" y="0" width="16" height="16" rx="5" fill="#0B1020" opacity="0.65"/>
    <path d="M4.2 8c0-1.8 1.4-3.2 3.2-3.2 1.3 0 2.2.7 3.4 2.1 1.2-1.4 2.1-2.1 3.4-2.1 1.8 0 3.2 1.4 3.2 3.2s-1.4 3.2-3.2 3.2c-1.3 0-2.2-.7-3.4-2.1-1.2 1.4-2.1 2.1-3.4 2.1-1.8 0-3.2-1.4-3.2-3.2zm3.2-1.6C6.6 6.4 6 7 6 8s.6 1.6 1.4 1.6c.8 0 1.5-.6 2.6-1.6-1.1-1-1.8-1.6-2.6-1.6zm6.8 0c-.8 0-1.5.6-2.6 1.6 1.1 1 1.8 1.6 2.6 1.6.8 0 1.4-.6 1.4-1.6s-.6-1.6-1.4-1.6z"
          fill="#22D3EE"/>
  </g>
</svg>
